<?xml version="1.0" encoding="UTF-8" standalone="no"?>
<!DOCTYPE svg PUBLIC "-//W3C//DTD SVG 1.1//EN"
 "http://www.w3.org/Graphics/SVG/1.1/DTD/svg11.dtd">
<!-- Generated by graphviz version 2.38.0 (20140413.2041)
 -->
<!-- Title: %3 Pages: 1 -->
<svg width="142pt" height="171pt"
 viewBox="0.00 0.00 142.00 171.00" xmlns="http://www.w3.org/2000/svg" xmlns:xlink="http://www.w3.org/1999/xlink">
<g id="graph0" class="graph" transform="scale(1 1) rotate(0) translate(4 167)">
<title>%3</title>
<polygon fill="white" stroke="none" points="-4,4 -4,-167 138,-167 138,4 -4,4"/>
<g id="clust1" class="cluster"><title>cluster_0</title>
<polygon fill="none" stroke="black" points="8,-8 8,-155 126,-155 126,-8 8,-8"/>
<text text-anchor="middle" x="67" y="-139.8" font-family="Times,serif" font-size="14.00">predictor&#45;0</text>
</g>
<!-- tfserving&#45;proxy0 -->
<g id="node1" class="node"><title>tfserving&#45;proxy0</title>
<polygon fill="none" stroke="black" points="117.5,-124 16.5,-124 16.5,-88 117.5,-88 117.5,-124"/>
<text text-anchor="middle" x="67" y="-102.3" font-family="Times,serif" font-size="14.00">tfserving&#45;proxy</text>
</g>
<!-- tfserving&#45;proxy0endpoint -->
<g id="node2" class="node"><title>tfserving&#45;proxy0endpoint</title>
<ellipse fill="none" stroke="black" cx="67" cy="-34" rx="32.4942" ry="18"/>
<text text-anchor="middle" x="67" y="-30.3" font-family="Times,serif" font-size="14.00">REST</text>
</g>
<!-- tfserving&#45;proxy0&#45;&gt;tfserving&#45;proxy0endpoint -->
<g id="edge1" class="edge"><title>tfserving&#45;proxy0&#45;&gt;tfserving&#45;proxy0endpoint</title>
<path fill="none" stroke="black" d="M67,-87.6966C67,-79.9827 67,-70.7125 67,-62.1124"/>
<polygon fill="black" stroke="black" points="70.5001,-62.1043 67,-52.1043 63.5001,-62.1044 70.5001,-62.1043"/>
</g>
</g>
</svg>
