<?xml version="1.0" encoding="utf-8"?>
<!-- Generator: Adobe Illustrator 15.1.0, SVG Export Plug-In . SVG Version: 6.00 Build 0)  -->
<!DOCTYPE svg PUBLIC "-//W3C//DTD SVG 1.1//EN" "http://www.w3.org/Graphics/SVG/1.1/DTD/svg11.dtd">
<svg version="1.1" id="Layer_1" xmlns="http://www.w3.org/2000/svg" xmlns:xlink="http://www.w3.org/1999/xlink" x="0px" y="0px"
	 width="170px" height="37.6px" viewBox="0 0 170 37.6" enable-background="new 0 0 170 37.6" xml:space="preserve">
<g>
	<g>
		<path fill="#FFFFFF" d="M23.632,10.145c2.793,0,5.066-2.275,5.066-5.072S26.426,0,23.632,0c-1.385,0-2.729,0.583-3.687,1.598
			l-6.038,6.458l8.734,1.99C22.778,10.067,23.281,10.145,23.632,10.145z M22.225,3.745c0.369-0.389,0.881-0.612,1.407-0.612
			c1.068,0,1.937,0.87,1.937,1.939S24.7,7.011,23.642,7.012c-0.067-0.002-0.239-0.021-0.414-0.046l-3.31-0.754L22.225,3.745z
			 M6.63,27.455c-2.794,0-5.066,2.275-5.066,5.072S3.836,37.6,6.63,37.6c1.385,0,2.729-0.583,3.687-1.599l6.038-6.456l-8.626-1.968
			C7.354,27.495,6.989,27.455,6.63,27.455z M8.038,33.854c-0.369,0.39-0.882,0.612-1.408,0.612c-1.068,0-1.937-0.869-1.937-1.938
			s0.869-1.938,1.937-1.938c0.134,0,0.271,0.015,0.417,0.047l3.297,0.752L8.038,33.854z M25.803,21.04l-9.557-3.354l-3.33-9.508
			C12.007,5.469,9.481,3.651,6.63,3.651C2.974,3.651,0,6.629,0,10.288c0,2.793,1.769,5.306,4.4,6.252l9.621,3.375l3.265,9.318
			c0.846,2.781,3.454,4.716,6.347,4.716c3.656,0,6.63-2.978,6.63-6.638C30.262,24.485,28.47,21.965,25.803,21.04z M5.448,13.588
			c-1.387-0.504-2.319-1.828-2.319-3.3c0-1.932,1.57-3.504,3.5-3.504c1.505,0,2.839,0.961,3.319,2.392l0.007,0.02l0.007,0.02
			l2.378,6.79L5.448,13.588z M23.632,30.815c-1.527,0-2.906-1.025-3.353-2.494l-0.019-0.062l-0.021-0.062l-2.312-6.6L24.778,24
			c1.408,0.489,2.354,1.819,2.354,3.312C27.132,29.243,25.562,30.815,23.632,30.815z M113.729,9.344h-6.742
			c-0.87,0-1.575,0.706-1.575,1.577v15.771c0,0.871,0.705,1.577,1.575,1.577h6.742c3.084,0,5.739-0.942,7.678-2.726
			c1.875-1.727,2.908-4.119,2.908-6.737s-1.033-5.011-2.908-6.737C119.468,10.287,116.812,9.344,113.729,9.344z M113.729,25.115
			h-5.167V12.499h5.167c4.447,0,7.436,2.535,7.436,6.308C121.164,22.58,118.176,25.115,113.729,25.115z M165.668,9.107
			c-2.902,0-3.893,2.458-5.262,5.857l-2.637,6.501c-1.25,3.104-1.702,3.886-2.439,3.886c-0.652,0-1.084-0.567-1.084-1.266V10.921
			c0-0.871-0.705-1.577-1.574-1.577c-0.871,0-1.576,0.706-1.576,1.577v13.165c0,2.438,1.943,4.42,4.332,4.42
			c2.904,0,3.894-2.458,5.263-5.856l2.636-6.501c1.251-3.105,1.703-3.886,2.44-3.886c0.651,0,1.083,0.567,1.083,1.266v13.165
			c0,0.871,0.705,1.577,1.575,1.577S170,27.563,170,26.692V13.527C170,11.09,168.057,9.107,165.668,9.107z M137.509,8.937
			c-5.646,0-10.24,4.421-10.24,9.857c0,5.435,4.594,9.856,10.24,9.856c5.646,0,10.239-4.422,10.239-9.856
			C147.748,13.358,143.154,8.937,137.509,8.937z M137.509,25.497c-3.909,0-7.089-3.008-7.089-6.703c0-3.696,3.18-6.703,7.089-6.703
			s7.089,3.007,7.089,6.703C144.598,22.489,141.418,25.497,137.509,25.497z M79.024,25.115H65.633v-5.151h9.255
			c0.87,0,1.575-0.706,1.575-1.577s-0.706-1.577-1.575-1.577h-9.255v-4.311h12.406c0.87,0,1.576-0.707,1.576-1.577
			c0-0.871-0.706-1.577-1.576-1.577H64.058c-0.87,0-1.576,0.706-1.576,1.577v15.771c0,0.871,0.706,1.577,1.576,1.577h14.966
			c0.87,0,1.575-0.706,1.575-1.577S79.894,25.115,79.024,25.115z M52.93,18.664l-6.494-2.639c-3.101-1.252-3.882-1.704-3.882-2.442
			c0-0.653,0.567-1.084,1.264-1.084h13.15c0.87,0,1.576-0.707,1.576-1.577c0-0.871-0.706-1.577-1.576-1.577h-13.15
			c-2.434,0-4.415,1.946-4.415,4.337c0,2.907,2.456,3.898,5.851,5.268l6.494,2.64c3.102,1.252,3.882,1.704,3.882,2.442
			c0,0.652-0.567,1.084-1.264,1.084h-13.15c-0.87,0-1.575,0.706-1.575,1.577s0.705,1.577,1.575,1.577h13.15
			c2.435,0,4.415-1.945,4.415-4.337C58.781,21.026,56.325,20.035,52.93,18.664z M100.488,25.115H87.491V10.921
			c0-0.871-0.705-1.577-1.575-1.577s-1.575,0.706-1.575,1.577v15.771c0,0.871,0.705,1.577,1.575,1.577h14.572
			c0.869,0,1.575-0.706,1.575-1.577S101.357,25.115,100.488,25.115z"/>
	</g>
</g>
</svg>
